<?xml version="1.0" encoding="UTF-8" standalone="no"?>
<svg
   xmlns:dc="http://purl.org/dc/elements/1.1/"
   xmlns:cc="http://creativecommons.org/ns#"
   xmlns:rdf="http://www.w3.org/1999/02/22-rdf-syntax-ns#"
   xmlns:svg="http://www.w3.org/2000/svg"
   xmlns="http://www.w3.org/2000/svg"
   xmlns:sodipodi="http://sodipodi.sourceforge.net/DTD/sodipodi-0.dtd"
   xmlns:inkscape="http://www.inkscape.org/namespaces/inkscape"
   width="32.980728"
   height="33.000832"
   viewBox="0 0 8.726151 8.7314699"
   version="1.1"
   id="svg166"
   inkscape:version="1.0 (9f2f71dc58, 2020-08-02)"
   sodipodi:docname="moon-small.svg">
  <defs
     id="defs160" />
  <sodipodi:namedview
     id="base"
     pagecolor="#ffffff"
     bordercolor="#666666"
     borderopacity="1.0"
     inkscape:pageopacity="0.0"
     inkscape:pageshadow="2"
     inkscape:zoom="0.35"
     inkscape:cx="-497.48112"
     inkscape:cy="-647.78911"
     inkscape:document-units="px"
     inkscape:current-layer="layer1"
     inkscape:document-rotation="0"
     showgrid="false"
     fit-margin-top="0"
     fit-margin-left="0"
     fit-margin-right="0"
     fit-margin-bottom="0"
     inkscape:showpageshadow="false"
     inkscape:window-width="1920"
     inkscape:window-height="1007"
     inkscape:window-x="0"
     inkscape:window-y="0"
     inkscape:window-maximized="1"
     units="px" />
  <metadata
     id="metadata163">
    <rdf:RDF>
      <cc:Work
         rdf:about="">
        <dc:format>image/svg+xml</dc:format>
        <dc:type
           rdf:resource="http://purl.org/dc/dcmitype/StillImage" />
        <dc:title></dc:title>
      </cc:Work>
    </rdf:RDF>
  </metadata>
  <g
     inkscape:label="Layer 1"
     inkscape:groupmode="layer"
     id="layer1"
     transform="translate(-237.45855,-319.56087)">
    <path
       style="opacity:1;fill:#4d4d4d;fill-opacity:1;stroke:none;stroke-width:9.26042;stroke-linecap:round;stroke-linejoin:round;stroke-miterlimit:4;stroke-dasharray:none;stroke-opacity:1"
       d="m 241.80366,319.5609 a 4.365625,4.365625 0 0 0 -0.43563,0.0238 4.365625,4.365625 0 0 0 -3.88556,4.79814 4.365625,4.365625 0 0 0 4.79816,3.88557 4.365625,4.365625 0 0 0 3.8995,-4.54081 3.3072916,3.3072919 84 0 1 -2.95175,3.09129 3.3072916,3.3072919 84 0 1 -3.63492,-2.94349 3.3072916,3.3072919 84 0 1 2.94349,-3.63493 3.3072916,3.3072919 84 0 1 2.70681,0.97306 4.365625,4.365625 0 0 0 -3.4401,-1.65262 z"
       id="path959-3"
       inkscape:connector-curvature="0" />
  </g>
</svg>
