<?xml version="1.0" encoding="UTF-8" standalone="no"?>
<svg
   xmlns:dc="http://purl.org/dc/elements/1.1/"
   xmlns:cc="http://creativecommons.org/ns#"
   xmlns:rdf="http://www.w3.org/1999/02/22-rdf-syntax-ns#"
   xmlns:svg="http://www.w3.org/2000/svg"
   xmlns="http://www.w3.org/2000/svg"
   xmlns:sodipodi="http://sodipodi.sourceforge.net/DTD/sodipodi-0.dtd"
   xmlns:inkscape="http://www.inkscape.org/namespaces/inkscape"
   width="79.951286"
   height="80.000008"
   viewBox="0 0 21.153778 21.166668"
   version="1.1"
   id="svg166"
   inkscape:version="1.0 (9f2f71dc58, 2020-08-02)"
   sodipodi:docname="moon-80.svg">
  <defs
     id="defs160" />
  <sodipodi:namedview
     id="base"
     pagecolor="#ffffff"
     bordercolor="#666666"
     borderopacity="1.0"
     inkscape:pageopacity="0.0"
     inkscape:pageshadow="2"
     inkscape:zoom="25.150881"
     inkscape:cx="16.490383"
     inkscape:cy="16.420929"
     inkscape:document-units="px"
     inkscape:current-layer="layer1"
     inkscape:document-rotation="0"
     showgrid="false"
     fit-margin-top="0"
     fit-margin-left="0"
     fit-margin-right="0"
     fit-margin-bottom="0"
     inkscape:showpageshadow="false"
     inkscape:window-width="1920"
     inkscape:window-height="1007"
     inkscape:window-x="0"
     inkscape:window-y="0"
     inkscape:window-maximized="1"
     units="px"
     inkscape:pagecheckerboard="true" />
  <metadata
     id="metadata163">
    <rdf:RDF>
      <cc:Work
         rdf:about="">
        <dc:format>image/svg+xml</dc:format>
        <dc:type
           rdf:resource="http://purl.org/dc/dcmitype/StillImage" />
        <dc:title></dc:title>
      </cc:Work>
    </rdf:RDF>
  </metadata>
  <g
     inkscape:label="Layer 1"
     inkscape:groupmode="layer"
     id="layer1"
     transform="translate(-237.45854,-319.56086)">
    <path
       style="opacity:1;fill:#ffffff;fill-opacity:1;stroke:none;stroke-width:22.4489;stroke-linecap:round;stroke-linejoin:round;stroke-miterlimit:4;stroke-dasharray:none;stroke-opacity:1"
       d="m 247.99189,319.56095 a 10.583066,10.583066 0 0 0 -1.05605,0.0577 10.583066,10.583066 0 0 0 -9.4193,11.63156 10.583066,10.583066 0 0 0 11.63161,9.41932 10.583066,10.583066 0 0 0 9.4531,-11.00774 8.0174742,8.0174749 84 0 1 -7.15558,7.49384 8.0174742,8.0174749 84 0 1 -8.81171,-7.13555 8.0174742,8.0174749 84 0 1 7.13556,-8.81173 8.0174742,8.0174749 84 0 1 6.56179,2.35887 10.583066,10.583066 0 0 0 -8.33942,-4.00625 z"
       id="path959-3"
       inkscape:connector-curvature="0" />
  </g>
</svg>
